<?xml version="1.0" encoding="utf-8"?>
<!-- Generator: Adobe Illustrator 21.0.0, SVG Export Plug-In . SVG Version: 6.00 Build 0)  -->
<svg version="1.1" id="Layer_1" xmlns="http://www.w3.org/2000/svg" xmlns:xlink="http://www.w3.org/1999/xlink" x="0px" y="0px"
	 viewBox="0 0 48 48" style="enable-background:new 0 0 48 48;" xml:space="preserve">
<style type="text/css">
	.st0{fill:#FFFFFF;}
</style>
<g>
	<path class="st0" d="M6.1,36.3c0-0.2,0-0.4,0-0.6c0-1.4,0.4-2.8,1.1-4c1-1.8,2.4-3.2,4.1-4.3c0.7-0.5,1.5-0.9,2.2-1.3
		c0.1-0.1,0.2-0.1,0.3-0.1c-0.1,0.5-0.2,0.9-0.2,1.3c-0.2,1.3-0.3,2.6-0.2,3.9c0,0.9,0.1,1.8,0.3,2.7c0,0.1,0,0.2-0.1,0.3
		c-0.3,0.4-0.6,0.7-0.9,1c-0.2,0.3-0.4,0.7-0.4,1c0,0.7-0.1,1.5,0.2,2.2c0.5,0.9,1.2,1.6,2.1,2c0.5,0.2,1.1,0.2,1.7,0.1
		c1.2-0.1,2-0.8,2.6-1.8c0.3-0.6,0.4-1.2,0.4-1.8c0-1.5-0.8-2.5-2.1-3.1c-0.5-0.2-1-0.3-1.5-0.3c-0.4,0-0.5,0-0.5-0.5
		c-0.1-0.5-0.1-0.9-0.1-1.4c0-1.1,0-2.2,0.1-3.4c0.1-1,0.3-2,0.7-2.9c0-0.1,0.2-0.2,0.3-0.3c0.8-0.2,1.7-0.5,2.5-0.7
		c2.1-0.5,4.3-0.6,6.5-0.5c2.3,0.1,4.5,0.5,6.7,1.2c0.2,0.1,0.3,0.2,0.4,0.4c0.2,1.2,0.4,2.3,0.2,3.5c-0.1,0.7-0.2,1.4-0.2,2.1
		c0,0.2-0.1,0.3-0.3,0.3c-0.5,0-1.1,0-1.6,0.1c-1.2,0.2-2.1,0.8-2.9,1.7c-0.9,1.1-1.5,2.4-2,3.8c0,0.1,0,0.1-0.1,0.2
		c-0.1,0.3-0.2,0.5-0.5,0.7c-0.7,0.5-0.9,1.2-0.7,2c0.2,0.8,1.1,1.3,1.9,1.2c1-0.2,1.6-0.9,1.5-1.8c0-0.4-0.1-0.8-0.5-1.2
		c-0.1-0.1-0.2-0.3-0.1-0.5c0.3-1.1,0.8-2.2,1.5-3.1c1.1-1.4,2.5-1.8,4.2-1.2c1.4,0.5,2.1,1.6,2.3,3.1c0.1,1,0,2-0.1,2.9
		c0,0.3-0.2,0.5-0.5,0.6c-0.7,0.3-1.2,1.1-1.1,1.8c0.1,0.8,0.6,1.4,1.3,1.6c0.7,0.2,1.4,0,1.8-0.6c0.5-0.6,0.6-1.2,0.2-1.9
		c-0.2-0.3-0.2-0.6-0.1-1c0.3-1.5,0.4-2.9,0.1-4.4c-0.3-1.3-1-2.4-2.2-3.2c-0.4-0.3-0.6-0.5-0.5-1c0.2-1,0.2-2,0.3-3.1
		c0.1-0.7,0-1.5-0.1-2.2c0,0,0,0,0-0.1c0.3,0.2,0.7,0.3,1,0.5c1.9,1,3.6,2.4,4.9,4.1c0.8,1.2,1.4,2.5,1.7,3.9
		c0.1,0.5,0.1,0.9,0.1,1.4c0,0.1,0,0.2,0,0.3c0,1.5,0,3.1,0,4.6c0,0.1,0,0.3,0,0.4c0,1,0,2,0,3.1c0,0.1,0,0.2,0,0.2
		c-0.3,0.6-0.6,1.1-1.1,1.5c-0.3,0.2-0.5,0.3-0.8,0.5c-10.6,0-21.1,0-31.7,0C8.1,46.1,8,46.1,7.9,46c-0.5-0.2-0.9-0.5-1.2-0.9
		c-0.3-0.4-0.6-0.9-0.5-1.5c0-0.7,0-1.4,0-2c0-0.3,0-0.6,0-0.9C6.1,39.4,6.1,37.8,6.1,36.3z"/>
	<path class="st0" d="M24.6,1.5c0.3,0,0.7,0.1,1,0.1c3.8,0.6,7,3.5,7.9,7.3c1.2,5.1-1.8,10.3-6.9,11.7C25.4,21,24.2,21,23,20.9
		c-2.6-0.2-4.7-1.4-6.4-3.3c-1.3-1.5-2-3.2-2.3-5.1c-0.4-2.8,0.4-5.2,2.1-7.4c1.5-1.8,3.4-3,5.7-3.4c0.3-0.1,0.6-0.1,1-0.2
		C23.6,1.5,24.1,1.5,24.6,1.5z"/>
</g>
</svg>
