<?xml version="1.0" encoding="utf-8"?>
<!-- Generator: Adobe Illustrator 21.0.0, SVG Export Plug-In . SVG Version: 6.00 Build 0)  -->
<svg version="1.1" id="Layer_1" xmlns="http://www.w3.org/2000/svg" xmlns:xlink="http://www.w3.org/1999/xlink" x="0px" y="0px"
	 viewBox="0 0 48 48" style="enable-background:new 0 0 48 48;" xml:space="preserve">
<style type="text/css">
	.st0{fill:#FFFFFF;}
</style>
<g>
	<path class="st0" d="M33,36.8C33.1,36.8,33.1,36.8,33,36.8c1.2,0.1,1.2,0.3,1.2-1c0.1-1.7,0-3.4,0-5.1c0-5,0-10.1,0-15.1
		c0-0.2,0-0.4,0-0.6c0.2,0,0.4,0,0.5,0c2.8,0,5.7,0,8.5,0c1.4,0,2,0.6,2,2c0,6.3,0,12.6,0,19c0,0.3,0,0.6,0,0.9c0.8,0,1.7,0,2.6,0
		c0,1.2,0,2.3,0,3.5c-15.9,0-31.8,0-47.8,0c0-1.1,0-2.3,0-3.4c0.9,0,1.9,0,2.8,0c0-0.7,0-1.3,0-2c0-6,0-12,0-17.9c0-1.4,0.7-2,2-2
		c2.8,0,5.6,0,8.4,0c0.1,0,0.3,0,0.5,0c0,0.2,0,0.4,0,0.6c0,6.6,0,13.3,0,19.9c0,0.4,0.1,0.9,0.1,1.4c0.4,0,0.7,0,1.1,0
		c0-5.5,0-11,0-16.5c0-3.6,0-7.3,0-10.9c0-1.1,0.7-1.8,1.8-1.8c4.9,0,9.7,0,14.6,0c1.1,0,1.8,0.7,1.8,1.8c0,8.9,0,17.8,0,26.7
		C33.1,36.4,33,36.6,33,36.8z M29.9,16.1c0-3.3-2.6-5.9-5.9-6c-3.3,0-6,2.7-6,6s2.6,5.9,5.9,5.9C27.3,22.1,29.9,19.4,29.9,16.1z
		 M20.7,27.9c0,2.9,0,5.8,0,8.8c2.4,0,4.7,0,7,0c0-2.9,0-5.8,0-8.8C25.4,27.9,23,27.9,20.7,27.9z M40.8,27.6c0,0.8,0,1.6,0,2.4
		c0.8,0,1.6,0,2.3,0c0-0.8,0-1.6,0-2.4C42.3,27.6,41.5,27.6,40.8,27.6z M9.4,27.6c0,0.8,0,1.6,0,2.4c0.8,0,1.6,0,2.3,0
		c0-0.8,0-1.6,0-2.4C10.9,27.6,10.2,27.6,9.4,27.6z M11.7,19.3c-0.8,0-1.6,0-2.3,0c0,0.8,0,1.6,0,2.3c0.8,0,1.5,0,2.3,0
		C11.7,20.8,11.7,20,11.7,19.3z M43.1,21.6c0-0.8,0-1.6,0-2.3c-0.8,0-1.6,0-2.4,0c0,0.8,0,1.6,0,2.3C41.5,21.6,42.3,21.6,43.1,21.6z
		 M11.7,25.7c0-0.8,0-1.6,0-2.3c-0.8,0-1.6,0-2.3,0c0,0.8,0,1.6,0,2.3C10.2,25.7,10.9,25.7,11.7,25.7z M40.7,25.7c0.8,0,1.6,0,2.3,0
		c0-0.8,0-1.6,0-2.3c-0.8,0-1.6,0-2.3,0C40.7,24.2,40.7,24.9,40.7,25.7z M5.6,27.6c0,0.8,0,1.6,0,2.4c0.8,0,1.6,0,2.3,0
		c0-0.8,0-1.6,0-2.4C7.1,27.6,6.4,27.6,5.6,27.6z M39.3,27.6c-0.8,0-1.6,0-2.3,0c0,0.8,0,1.6,0,2.4c0.8,0,1.6,0,2.3,0
		C39.3,29.1,39.3,28.4,39.3,27.6z M7.9,21.6c0-0.8,0-1.6,0-2.3c-0.8,0-1.5,0-2.3,0c0,0.8,0,1.6,0,2.3C6.4,21.6,7.1,21.6,7.9,21.6z
		 M39.3,19.3c-0.8,0-1.6,0-2.3,0c0,0.8,0,1.5,0,2.3c0.8,0,1.5,0,2.3,0C39.3,20.8,39.3,20,39.3,19.3z M7.9,25.7c0-0.8,0-1.6,0-2.3
		c-0.8,0-1.6,0-2.3,0c0,0.8,0,1.5,0,2.3C6.4,25.7,7.1,25.7,7.9,25.7z M37,23.4c0,0.8,0,1.5,0,2.3c0.8,0,1.6,0,2.3,0
		c0-0.8,0-1.5,0-2.3C38.5,23.4,37.8,23.4,37,23.4z"/>
	<path class="st0" d="M25.5,12.4c0,0.8,0,1.5,0,2.2c0.8,0,1.5,0,2.2,0c0,1,0,2,0,3c-0.7,0-1.4,0-2.2,0c0,0.8,0,1.5,0,2.2
		c-1,0-2,0-3,0c0-0.7,0-1.4,0-2.2c-0.8,0-1.5,0-2.3,0c0-1,0-2,0-3c0.7,0,1.4,0,2.2,0c0-0.8,0-1.5,0-2.3
		C23.5,12.4,24.5,12.4,25.5,12.4z"/>
</g>
</svg>
